<svg width="1880" height="954" aria-label="A chart." style="overflow: hidden;"><defs id="defs"><clipPath id="_ABSTRACT_RENDERER_ID_1"><rect x="316" y="182" width="1248" height="590"></rect></clipPath></defs><rect x="0" y="0" width="1880" height="954" stroke="none" stroke-width="0" fill="#ffffff"></rect><g><text text-anchor="start" x="316" y="150.3" font-family="Arial" font-size="18" font-weight="bold" stroke="none" stroke-width="0" fill="#000000">Beetle time series</text><rect x="316" y="135" width="1248" height="18" stroke="none" stroke-width="0" fill-opacity="0" fill="#ffffff"></rect></g><g><rect x="1582" y="182" width="280" height="76" stroke="none" stroke-width="0" fill-opacity="0" fill="#ffffff"></rect><g column-id="R10252"><rect x="1582" y="182" width="280" height="18" stroke="none" stroke-width="0" fill-opacity="0" fill="#ffffff"></rect><g><text text-anchor="start" x="1625" y="197.3" font-family="Arial" font-size="18" stroke="none" stroke-width="0" fill="#222222">R10252</text></g><path d="M1582,191L1618,191" stroke="#00ff00" stroke-width="1" fill-opacity="1" fill="none"></path><circle cx="1600" cy="191" r="2" stroke="none" stroke-width="0" fill="#00ff00"></circle></g><g column-id="R10171"><rect x="1582" y="211" width="280" height="18" stroke="none" stroke-width="0" fill-opacity="0" fill="#ffffff"></rect><g><text text-anchor="start" x="1625" y="226.3" font-family="Arial" font-size="18" stroke="none" stroke-width="0" fill="#222222">R10171</text></g><path d="M1582,220L1618,220" stroke="#ff0000" stroke-width="1" fill-opacity="1" fill="none"></path><circle cx="1600" cy="220" r="2" stroke="none" stroke-width="0" fill="#ff0000"></circle></g><g column-id="R10070"><rect x="1582" y="240" width="280" height="18" stroke="none" stroke-width="0" fill-opacity="0" fill="#ffffff"></rect><g><text text-anchor="start" x="1625" y="255.3" font-family="Arial" font-size="18" stroke="none" stroke-width="0" fill="#222222">R10070</text></g><path d="M1582,249L1618,249" stroke="#000000" stroke-width="1" fill-opacity="1" fill="none"></path><circle cx="1600" cy="249" r="2" stroke="none" stroke-width="0" fill="#000000"></circle></g></g><g><rect x="316" y="182" width="1248" height="590" stroke="none" stroke-width="0" fill-opacity="0" fill="#ffffff"></rect><g clip-path="url(https://code.earthengine.google.com/#_ABSTRACT_RENDERER_ID_1)"><g><rect x="476" y="182" width="1" height="590" stroke="none" stroke-width="0" fill="#cccccc"></rect><rect x="784" y="182" width="1" height="590" stroke="none" stroke-width="0" fill="#cccccc"></rect><rect x="1091" y="182" width="1" height="590" stroke="none" stroke-width="0" fill="#cccccc"></rect><rect x="1398" y="182" width="1" height="590" stroke="none" stroke-width="0" fill="#cccccc"></rect><rect x="316" y="771" width="1248" height="1" stroke="none" stroke-width="0" fill="#cccccc"></rect><rect x="316" y="624" width="1248" height="1" stroke="none" stroke-width="0" fill="#cccccc"></rect><rect x="316" y="477" width="1248" height="1" stroke="none" stroke-width="0" fill="#cccccc"></rect><rect x="316" y="329" width="1248" height="1" stroke="none" stroke-width="0" fill="#cccccc"></rect><rect x="316" y="182" width="1248" height="1" stroke="none" stroke-width="0" fill="#cccccc"></rect></g><g><rect x="316" y="477" width="1248" height="1" stroke="none" stroke-width="0" fill="#333333"></rect></g><g><path d="M336.86505016401327,204.3000271149674L374.56667056576896,209.7700192625207L388.03146534137545,228.5664199698947L389.2103498913364,210.9376048071548L448.45482622440386,206.71553156146183L451.3171202704058,213.36300505050508L459.3959201206622,205.55837912087907L460.74047290134075,183.0045466526094L506.35454597755734,215.71647374364773L513.2543948681209,196.20117586912068L521.3331187322108,215.13378378378388L572.4987268280561,226.89154411764707L631.7431729513285,237.14948453608247L696.3735972684622,249.66732534421214L697.5524686946554,242.53943452380952L701.590563583133,234.55447941888622L701.759451551126,239.87443693693695L706.9764857930313,253.6645244215938L707.1452984897785,228.266891891892L746.0253734291798,297.6124483165978L748.7182990997615,277.99632987910195L758.3111228365622,263.33569587628864L805.2699704825984,285.34615959354454L818.9020255205737,287.7336387434556L822.9415927566944,249.0929228998849L824.1204678256731,274.61731796927194L867.3753222343956,308.78394039735105L875.4542113932839,258.8586929252383L876.6331053190343,236.00335906232146L884.7119778613664,264.9379675810474L887.4049330638344,282.727417302799L929.3130971482373,245.30598325229607L932.0060081892367,284.7179503261415L938.7378626539601,279.0074419778002L1003.2002638042608,271.3455528846154L1050.494304417643,238.73008241758248L1055.712931238591,253.74002699460107L1055.8802419778883,278.1234218832194L1062.44507286,234.75801462317213L1063.9591427079772,266.6691912869304L1065.1380360298435,233.79031774580335L1065.3057644427379,244.24272216547502L1070.6916227188296,239.25684836745995L1074.730987439456,257.86246312684364L1113.6110548205645,273.98551212938L1123.2038781872425,248.58509036144574L1127.075680095611,227.81413538111497L1129.7686030974141,219.55956375838934L1129.936411047704,243.02224576271192L1135.3222861351533,257.46439738487777L1179.7553600867961,279.2690774487472L1195.7458322625873,228.15037410540015L1251.1187674308553,247.7107142857143L1256.504677115026,225.08035714285722L1296.7318527667733,282.6074617346939L1309.0176627378987,260.21286178381575L1358.6690807757952,626.3937670609646L1369.6081570013775,644.5132978723404L1373.479986084536,617.2586459554514L1373.647846884435,655.5982614884099L1374.9940403094442,615.6097107438017L1421.9530095115292,613.2611940298507L1430.1993975683488,580.717757936508L1435.5852853178865,549.4735510579577L1500.2157620560663,412.65641918020106L1551.214214418005,401.0585114277234L1557.946237950829,408.30157992565057L1558.1141345746983,391.50823223570194L1559.2930131501016,357.3714052287582L1563.5,371.3984584450402" stroke="#00ff00" stroke-width="1" fill-opacity="1" fill="none"></path><path d="M336.86505016401327,248.7673405654176L374.56667056576896,287.8303274139845L388.03146534137545,275.2876712328768L451.3171202704058,280.3304794520548L451.4829292139382,287.05422374429224L459.3959201206622,242.42503346720218L460.74047290134075,184.96328996282534L506.6897130733346,295.4248310810811L513.2543948681209,273.14469522714205L521.3331187322108,242.32660738714094L572.4987268280561,262.15849944629014L576.7056612237922,254.97759740259744L631.7431729513285,255.7171052631578L696.3735972684622,293.5544692737431L701.759451551126,295.49715549936786L707.1452984897785,298.608893557423L744.846492905763,329.793232530828L758.3111228365622,356.239417989418L818.9020255205737,368.15836580613734L821.7627166942287,427.60303514377L822.9415927566944,402.6670673076923L867.3753222343956,436.7035347776511L875.4542113932839,399.41628660585695L890.4330645586517,387.1998106060606L929.3130971482373,314.87626262626264L932.0060081892367,446.70246100053794L938.7378626539601,389.22031031264584L942.9448373092933,417.4088840996169L949.5095534144434,395.34318181818185L949.677522270657,416.13277116402116L994.1105542815671,458.1673503861004L999.4963849153457,391.07325776658274L1050.494304417643,301.4654922779923L1050.6622313136436,309.53991955143835L1055.8802419778883,426.92561105207227L1062.612840174726,360.0272471910112L1063.9591427079772,362.40170019157097L1065.3057644427379,335.8545006871278L1070.6916227188296,337.3189252336449L1070.859135954141,396.05625337655323L1074.730987439456,391.5701476793249L1129.936411047704,347.23456866633614L1130.1037745002495,331.67615189379154L1132.7967019240434,403.2158968125338L1135.3222861351533,387.12910798122067L1179.7553600867961,434.34668580375785L1239.1680958632148,448.1651436031332L1251.1187674308553,325.20524691358025L1256.504677115026,320.46759984338297L1309.0176627378987,540.9740566037735L1318.6105206623383,531.8938679245283L1369.6081570013775,496.17768311790053L1373.647846884435,485.31138287864536L1374.9940403094442,416.8979591836735L1420.9416674696804,585.3315217391305L1430.1993975683488,432.1356941081517L1430.3670115938844,433.28918563922946L1500.2157620560663,404.2197705207414L1500.383643310108,388.4591334613539L1558.1141345746983,369.7778520499109L1563.5,342.5723314606742" stroke="#ff0000" stroke-width="1" fill-opacity="1" fill="none"></path><path d="M316.5,349.95568315665486L336.86505016401327,242.38315629742033L374.56667056576896,335.4725482524779L388.03146534137545,302.12641533710763L451.3171202704058,308.95992569002124L459.3959201206622,270.8394140905823L460.74047290134075,277.8597372488409L513.2543948681209,289.83750000000003L521.3331187322108,275.1965361445783L572.4987268280561,293.42009701101205L631.7431729513285,348.7998251748252L696.3735972684622,373.5288729128015L701.759451551126,378.776392111369L707.1452984897785,407.4171568627451L758.3111228365622,389.18720767072034L818.9020255205737,361.37293899422923L822.9415927566944,383.1642156862745L867.3753222343956,431.17889854391734L872.7612455546617,383.80175994752955L875.4542113932839,353.6967171717172L887.4049330638344,365.9000642673522L929.3130971482373,456.491643454039L932.0060081892367,446.6539167026327L938.7378626539601,358.4668049792531L949.5095534144434,387.9446107784431L1050.494304417643,416.17022792022794L1055.8802419778883,421.30694098088117L1057.0591384750167,397.6267022242397L1062.612840174726,344.6067941415785L1063.9591427079772,349.5370981038747L1065.1380360298435,328.57065217391306L1065.3057644427379,327.61376174908054L1070.6916227188296,355.2621725160652L1074.730987439456,391.4916666666667L1123.2038781872425,350.065313111546L1129.936411047704,346.3008474576271L1135.3222861351533,405.02025139664806L1179.7553600867961,317.3270972354624L1239.1680958632148,410.0101819757366L1251.1187674308553,329.62403763900767L1256.504677115026,346.04804515418505L1309.0176627378987,341.07946388515035L1369.6081570013775,329.18661900926304L1373.647846884435,482.77702702702703L1430.1993975683488,577.9056919642858L1435.5852853178865,553.9063370473538L1500.2157620560663,437.4201267482518L1558.1141345746983,421.60968708388816L1563.5,409.04994929006085" stroke="#000000" stroke-width="1" fill-opacity="1" fill="none"></path></g></g><g><circle cx="336.86505016401327" cy="204.3000271149674" r="2" stroke="none" stroke-width="0" fill="#00ff00"></circle><circle cx="374.56667056576896" cy="209.7700192625207" r="2" stroke="none" stroke-width="0" fill="#00ff00"></circle><circle cx="388.03146534137545" cy="228.5664199698947" r="2" stroke="none" stroke-width="0" fill="#00ff00"></circle><circle cx="389.2103498913364" cy="210.9376048071548" r="2" stroke="none" stroke-width="0" fill="#00ff00"></circle><circle cx="448.45482622440386" cy="206.71553156146183" r="2" stroke="none" stroke-width="0" fill="#00ff00"></circle><circle cx="451.3171202704058" cy="213.36300505050508" r="2" stroke="none" stroke-width="0" fill="#00ff00"></circle><circle cx="459.3959201206622" cy="205.55837912087907" r="2" stroke="none" stroke-width="0" fill="#00ff00"></circle><circle cx="460.74047290134075" cy="183.0045466526094" r="2" stroke="none" stroke-width="0" fill="#00ff00"></circle><circle cx="506.35454597755734" cy="215.71647374364773" r="2" stroke="none" stroke-width="0" fill="#00ff00"></circle><circle cx="513.2543948681209" cy="196.20117586912068" r="2" stroke="none" stroke-width="0" fill="#00ff00"></circle><circle cx="521.3331187322108" cy="215.13378378378388" r="2" stroke="none" stroke-width="0" fill="#00ff00"></circle><circle cx="572.4987268280561" cy="226.89154411764707" r="2" stroke="none" stroke-width="0" fill="#00ff00"></circle><circle cx="631.7431729513285" cy="237.14948453608247" r="2" stroke="none" stroke-width="0" fill="#00ff00"></circle><circle cx="696.3735972684622" cy="249.66732534421214" r="2" stroke="none" stroke-width="0" fill="#00ff00"></circle><circle cx="697.5524686946554" cy="242.53943452380952" r="2" stroke="none" stroke-width="0" fill="#00ff00"></circle><circle cx="701.590563583133" cy="234.55447941888622" r="2" stroke="none" stroke-width="0" fill="#00ff00"></circle><circle cx="701.759451551126" cy="239.87443693693695" r="2" stroke="none" stroke-width="0" fill="#00ff00"></circle><circle cx="706.9764857930313" cy="253.6645244215938" r="2" stroke="none" stroke-width="0" fill="#00ff00"></circle><circle cx="707.1452984897785" cy="228.266891891892" r="2" stroke="none" stroke-width="0" fill="#00ff00"></circle><circle cx="746.0253734291798" cy="297.6124483165978" r="2" stroke="none" stroke-width="0" fill="#00ff00"></circle><circle cx="748.7182990997615" cy="277.99632987910195" r="2" stroke="none" stroke-width="0" fill="#00ff00"></circle><circle cx="758.3111228365622" cy="263.33569587628864" r="2" stroke="none" stroke-width="0" fill="#00ff00"></circle><circle cx="805.2699704825984" cy="285.34615959354454" r="2" stroke="none" stroke-width="0" fill="#00ff00"></circle><circle cx="818.9020255205737" cy="287.7336387434556" r="2" stroke="none" stroke-width="0" fill="#00ff00"></circle><circle cx="822.9415927566944" cy="249.0929228998849" r="2" stroke="none" stroke-width="0" fill="#00ff00"></circle><circle cx="824.1204678256731" cy="274.61731796927194" r="2" stroke="none" stroke-width="0" fill="#00ff00"></circle><circle cx="867.3753222343956" cy="308.78394039735105" r="2" stroke="none" stroke-width="0" fill="#00ff00"></circle><circle cx="875.4542113932839" cy="258.8586929252383" r="2" stroke="none" stroke-width="0" fill="#00ff00"></circle><circle cx="876.6331053190343" cy="236.00335906232146" r="2" stroke="none" stroke-width="0" fill="#00ff00"></circle><circle cx="884.7119778613664" cy="264.9379675810474" r="2" stroke="none" stroke-width="0" fill="#00ff00"></circle><circle cx="887.4049330638344" cy="282.727417302799" r="2" stroke="none" stroke-width="0" fill="#00ff00"></circle><circle cx="929.3130971482373" cy="245.30598325229607" r="2" stroke="none" stroke-width="0" fill="#00ff00"></circle><circle cx="932.0060081892367" cy="284.7179503261415" r="2" stroke="none" stroke-width="0" fill="#00ff00"></circle><circle cx="938.7378626539601" cy="279.0074419778002" r="2" stroke="none" stroke-width="0" fill="#00ff00"></circle><circle cx="1003.2002638042608" cy="271.3455528846154" r="2" stroke="none" stroke-width="0" fill="#00ff00"></circle><circle cx="1050.494304417643" cy="238.73008241758248" r="2" stroke="none" stroke-width="0" fill="#00ff00"></circle><circle cx="1055.712931238591" cy="253.74002699460107" r="2" stroke="none" stroke-width="0" fill="#00ff00"></circle><circle cx="1055.8802419778883" cy="278.1234218832194" r="2" stroke="none" stroke-width="0" fill="#00ff00"></circle><circle cx="1062.44507286" cy="234.75801462317213" r="2" stroke="none" stroke-width="0" fill="#00ff00"></circle><circle cx="1063.9591427079772" cy="266.6691912869304" r="2" stroke="none" stroke-width="0" fill="#00ff00"></circle><circle cx="1065.1380360298435" cy="233.79031774580335" r="2" stroke="none" stroke-width="0" fill="#00ff00"></circle><circle cx="1065.3057644427379" cy="244.24272216547502" r="2" stroke="none" stroke-width="0" fill="#00ff00"></circle><circle cx="1070.6916227188296" cy="239.25684836745995" r="2" stroke="none" stroke-width="0" fill="#00ff00"></circle><circle cx="1074.730987439456" cy="257.86246312684364" r="2" stroke="none" stroke-width="0" fill="#00ff00"></circle><circle cx="1113.6110548205645" cy="273.98551212938" r="2" stroke="none" stroke-width="0" fill="#00ff00"></circle><circle cx="1123.2038781872425" cy="248.58509036144574" r="2" stroke="none" stroke-width="0" fill="#00ff00"></circle><circle cx="1127.075680095611" cy="227.81413538111497" r="2" stroke="none" stroke-width="0" fill="#00ff00"></circle><circle cx="1129.7686030974141" cy="219.55956375838934" r="2" stroke="none" stroke-width="0" fill="#00ff00"></circle><circle cx="1129.936411047704" cy="243.02224576271192" r="2" stroke="none" stroke-width="0" fill="#00ff00"></circle><circle cx="1135.3222861351533" cy="257.46439738487777" r="2" stroke="none" stroke-width="0" fill="#00ff00"></circle><circle cx="1179.7553600867961" cy="279.2690774487472" r="2" stroke="none" stroke-width="0" fill="#00ff00"></circle><circle cx="1195.7458322625873" cy="228.15037410540015" r="2" stroke="none" stroke-width="0" fill="#00ff00"></circle><circle cx="1251.1187674308553" cy="247.7107142857143" r="2" stroke="none" stroke-width="0" fill="#00ff00"></circle><circle cx="1256.504677115026" cy="225.08035714285722" r="2" stroke="none" stroke-width="0" fill="#00ff00"></circle><circle cx="1296.7318527667733" cy="282.6074617346939" r="2" stroke="none" stroke-width="0" fill="#00ff00"></circle><circle cx="1309.0176627378987" cy="260.21286178381575" r="2" stroke="none" stroke-width="0" fill="#00ff00"></circle><circle cx="1358.6690807757952" cy="626.3937670609646" r="2" stroke="none" stroke-width="0" fill="#00ff00"></circle><circle cx="1369.6081570013775" cy="644.5132978723404" r="2" stroke="none" stroke-width="0" fill="#00ff00"></circle><circle cx="1373.479986084536" cy="617.2586459554514" r="2" stroke="none" stroke-width="0" fill="#00ff00"></circle><circle cx="1373.647846884435" cy="655.5982614884099" r="2" stroke="none" stroke-width="0" fill="#00ff00"></circle><circle cx="1374.9940403094442" cy="615.6097107438017" r="2" stroke="none" stroke-width="0" fill="#00ff00"></circle><circle cx="1421.9530095115292" cy="613.2611940298507" r="2" stroke="none" stroke-width="0" fill="#00ff00"></circle><circle cx="1430.1993975683488" cy="580.717757936508" r="2" stroke="none" stroke-width="0" fill="#00ff00"></circle><circle cx="1435.5852853178865" cy="549.4735510579577" r="2" stroke="none" stroke-width="0" fill="#00ff00"></circle><circle cx="1500.2157620560663" cy="412.65641918020106" r="2" stroke="none" stroke-width="0" fill="#00ff00"></circle><circle cx="1551.214214418005" cy="401.0585114277234" r="2" stroke="none" stroke-width="0" fill="#00ff00"></circle><circle cx="1557.946237950829" cy="408.30157992565057" r="2" stroke="none" stroke-width="0" fill="#00ff00"></circle><circle cx="1558.1141345746983" cy="391.50823223570194" r="2" stroke="none" stroke-width="0" fill="#00ff00"></circle><circle cx="1559.2930131501016" cy="357.3714052287582" r="2" stroke="none" stroke-width="0" fill="#00ff00"></circle><circle cx="1563.5" cy="371.3984584450402" r="2" stroke="none" stroke-width="0" fill="#00ff00"></circle><circle cx="336.86505016401327" cy="248.7673405654176" r="2" stroke="none" stroke-width="0" fill="#ff0000"></circle><circle cx="374.56667056576896" cy="287.8303274139845" r="2" stroke="none" stroke-width="0" fill="#ff0000"></circle><circle cx="388.03146534137545" cy="275.2876712328768" r="2" stroke="none" stroke-width="0" fill="#ff0000"></circle><circle cx="451.3171202704058" cy="280.3304794520548" r="2" stroke="none" stroke-width="0" fill="#ff0000"></circle><circle cx="451.4829292139382" cy="287.05422374429224" r="2" stroke="none" stroke-width="0" fill="#ff0000"></circle><circle cx="459.3959201206622" cy="242.42503346720218" r="2" stroke="none" stroke-width="0" fill="#ff0000"></circle><circle cx="460.74047290134075" cy="184.96328996282534" r="2" stroke="none" stroke-width="0" fill="#ff0000"></circle><circle cx="506.6897130733346" cy="295.4248310810811" r="2" stroke="none" stroke-width="0" fill="#ff0000"></circle><circle cx="513.2543948681209" cy="273.14469522714205" r="2" stroke="none" stroke-width="0" fill="#ff0000"></circle><circle cx="521.3331187322108" cy="242.32660738714094" r="2" stroke="none" stroke-width="0" fill="#ff0000"></circle><circle cx="572.4987268280561" cy="262.15849944629014" r="2" stroke="none" stroke-width="0" fill="#ff0000"></circle><circle cx="576.7056612237922" cy="254.97759740259744" r="2" stroke="none" stroke-width="0" fill="#ff0000"></circle><circle cx="631.7431729513285" cy="255.7171052631578" r="2" stroke="none" stroke-width="0" fill="#ff0000"></circle><circle cx="696.3735972684622" cy="293.5544692737431" r="2" stroke="none" stroke-width="0" fill="#ff0000"></circle><circle cx="701.759451551126" cy="295.49715549936786" r="2" stroke="none" stroke-width="0" fill="#ff0000"></circle><circle cx="707.1452984897785" cy="298.608893557423" r="2" stroke="none" stroke-width="0" fill="#ff0000"></circle><circle cx="744.846492905763" cy="329.793232530828" r="2" stroke="none" stroke-width="0" fill="#ff0000"></circle><circle cx="758.3111228365622" cy="356.239417989418" r="2" stroke="none" stroke-width="0" fill="#ff0000"></circle><circle cx="818.9020255205737" cy="368.15836580613734" r="2" stroke="none" stroke-width="0" fill="#ff0000"></circle><circle cx="821.7627166942287" cy="427.60303514377" r="2" stroke="none" stroke-width="0" fill="#ff0000"></circle><circle cx="822.9415927566944" cy="402.6670673076923" r="2" stroke="none" stroke-width="0" fill="#ff0000"></circle><circle cx="867.3753222343956" cy="436.7035347776511" r="2" stroke="none" stroke-width="0" fill="#ff0000"></circle><circle cx="875.4542113932839" cy="399.41628660585695" r="2" stroke="none" stroke-width="0" fill="#ff0000"></circle><circle cx="890.4330645586517" cy="387.1998106060606" r="2" stroke="none" stroke-width="0" fill="#ff0000"></circle><circle cx="929.3130971482373" cy="314.87626262626264" r="2" stroke="none" stroke-width="0" fill="#ff0000"></circle><circle cx="932.0060081892367" cy="446.70246100053794" r="2" stroke="none" stroke-width="0" fill="#ff0000"></circle><circle cx="938.7378626539601" cy="389.22031031264584" r="2" stroke="none" stroke-width="0" fill="#ff0000"></circle><circle cx="942.9448373092933" cy="417.4088840996169" r="2" stroke="none" stroke-width="0" fill="#ff0000"></circle><circle cx="949.5095534144434" cy="395.34318181818185" r="2" stroke="none" stroke-width="0" fill="#ff0000"></circle><circle cx="949.677522270657" cy="416.13277116402116" r="2" stroke="none" stroke-width="0" fill="#ff0000"></circle><circle cx="994.1105542815671" cy="458.1673503861004" r="2" stroke="none" stroke-width="0" fill="#ff0000"></circle><circle cx="999.4963849153457" cy="391.07325776658274" r="2" stroke="none" stroke-width="0" fill="#ff0000"></circle><circle cx="1050.494304417643" cy="301.4654922779923" r="2" stroke="none" stroke-width="0" fill="#ff0000"></circle><circle cx="1050.6622313136436" cy="309.53991955143835" r="2" stroke="none" stroke-width="0" fill="#ff0000"></circle><circle cx="1055.8802419778883" cy="426.92561105207227" r="2" stroke="none" stroke-width="0" fill="#ff0000"></circle><circle cx="1062.612840174726" cy="360.0272471910112" r="2" stroke="none" stroke-width="0" fill="#ff0000"></circle><circle cx="1063.9591427079772" cy="362.40170019157097" r="2" stroke="none" stroke-width="0" fill="#ff0000"></circle><circle cx="1065.3057644427379" cy="335.8545006871278" r="2" stroke="none" stroke-width="0" fill="#ff0000"></circle><circle cx="1070.6916227188296" cy="337.3189252336449" r="2" stroke="none" stroke-width="0" fill="#ff0000"></circle><circle cx="1070.859135954141" cy="396.05625337655323" r="2" stroke="none" stroke-width="0" fill="#ff0000"></circle><circle cx="1074.730987439456" cy="391.5701476793249" r="2" stroke="none" stroke-width="0" fill="#ff0000"></circle><circle cx="1129.936411047704" cy="347.23456866633614" r="2" stroke="none" stroke-width="0" fill="#ff0000"></circle><circle cx="1130.1037745002495" cy="331.67615189379154" r="2" stroke="none" stroke-width="0" fill="#ff0000"></circle><circle cx="1132.7967019240434" cy="403.2158968125338" r="2" stroke="none" stroke-width="0" fill="#ff0000"></circle><circle cx="1135.3222861351533" cy="387.12910798122067" r="2" stroke="none" stroke-width="0" fill="#ff0000"></circle><circle cx="1179.7553600867961" cy="434.34668580375785" r="2" stroke="none" stroke-width="0" fill="#ff0000"></circle><circle cx="1239.1680958632148" cy="448.1651436031332" r="2" stroke="none" stroke-width="0" fill="#ff0000"></circle><circle cx="1251.1187674308553" cy="325.20524691358025" r="2" stroke="none" stroke-width="0" fill="#ff0000"></circle><circle cx="1256.504677115026" cy="320.46759984338297" r="2" stroke="none" stroke-width="0" fill="#ff0000"></circle><circle cx="1309.0176627378987" cy="540.9740566037735" r="2" stroke="none" stroke-width="0" fill="#ff0000"></circle><circle cx="1318.6105206623383" cy="531.8938679245283" r="2" stroke="none" stroke-width="0" fill="#ff0000"></circle><circle cx="1369.6081570013775" cy="496.17768311790053" r="2" stroke="none" stroke-width="0" fill="#ff0000"></circle><circle cx="1373.647846884435" cy="485.31138287864536" r="2" stroke="none" stroke-width="0" fill="#ff0000"></circle><circle cx="1374.9940403094442" cy="416.8979591836735" r="2" stroke="none" stroke-width="0" fill="#ff0000"></circle><circle cx="1420.9416674696804" cy="585.3315217391305" r="2" stroke="none" stroke-width="0" fill="#ff0000"></circle><circle cx="1430.1993975683488" cy="432.1356941081517" r="2" stroke="none" stroke-width="0" fill="#ff0000"></circle><circle cx="1430.3670115938844" cy="433.28918563922946" r="2" stroke="none" stroke-width="0" fill="#ff0000"></circle><circle cx="1500.2157620560663" cy="404.2197705207414" r="2" stroke="none" stroke-width="0" fill="#ff0000"></circle><circle cx="1500.383643310108" cy="388.4591334613539" r="2" stroke="none" stroke-width="0" fill="#ff0000"></circle><circle cx="1558.1141345746983" cy="369.7778520499109" r="2" stroke="none" stroke-width="0" fill="#ff0000"></circle><circle cx="1563.5" cy="342.5723314606742" r="2" stroke="none" stroke-width="0" fill="#ff0000"></circle><circle cx="316.5" cy="349.95568315665486" r="2" stroke="none" stroke-width="0" fill="#000000"></circle><circle cx="336.86505016401327" cy="242.38315629742033" r="2" stroke="none" stroke-width="0" fill="#000000"></circle><circle cx="374.56667056576896" cy="335.4725482524779" r="2" stroke="none" stroke-width="0" fill="#000000"></circle><circle cx="388.03146534137545" cy="302.12641533710763" r="2" stroke="none" stroke-width="0" fill="#000000"></circle><circle cx="451.3171202704058" cy="308.95992569002124" r="2" stroke="none" stroke-width="0" fill="#000000"></circle><circle cx="459.3959201206622" cy="270.8394140905823" r="2" stroke="none" stroke-width="0" fill="#000000"></circle><circle cx="460.74047290134075" cy="277.8597372488409" r="2" stroke="none" stroke-width="0" fill="#000000"></circle><circle cx="513.2543948681209" cy="289.83750000000003" r="2" stroke="none" stroke-width="0" fill="#000000"></circle><circle cx="521.3331187322108" cy="275.1965361445783" r="2" stroke="none" stroke-width="0" fill="#000000"></circle><circle cx="572.4987268280561" cy="293.42009701101205" r="2" stroke="none" stroke-width="0" fill="#000000"></circle><circle cx="631.7431729513285" cy="348.7998251748252" r="2" stroke="none" stroke-width="0" fill="#000000"></circle><circle cx="696.3735972684622" cy="373.5288729128015" r="2" stroke="none" stroke-width="0" fill="#000000"></circle><circle cx="701.759451551126" cy="378.776392111369" r="2" stroke="none" stroke-width="0" fill="#000000"></circle><circle cx="707.1452984897785" cy="407.4171568627451" r="2" stroke="none" stroke-width="0" fill="#000000"></circle><circle cx="758.3111228365622" cy="389.18720767072034" r="2" stroke="none" stroke-width="0" fill="#000000"></circle><circle cx="818.9020255205737" cy="361.37293899422923" r="2" stroke="none" stroke-width="0" fill="#000000"></circle><circle cx="822.9415927566944" cy="383.1642156862745" r="2" stroke="none" stroke-width="0" fill="#000000"></circle><circle cx="867.3753222343956" cy="431.17889854391734" r="2" stroke="none" stroke-width="0" fill="#000000"></circle><circle cx="872.7612455546617" cy="383.80175994752955" r="2" stroke="none" stroke-width="0" fill="#000000"></circle><circle cx="875.4542113932839" cy="353.6967171717172" r="2" stroke="none" stroke-width="0" fill="#000000"></circle><circle cx="887.4049330638344" cy="365.9000642673522" r="2" stroke="none" stroke-width="0" fill="#000000"></circle><circle cx="929.3130971482373" cy="456.491643454039" r="2" stroke="none" stroke-width="0" fill="#000000"></circle><circle cx="932.0060081892367" cy="446.6539167026327" r="2" stroke="none" stroke-width="0" fill="#000000"></circle><circle cx="938.7378626539601" cy="358.4668049792531" r="2" stroke="none" stroke-width="0" fill="#000000"></circle><circle cx="949.5095534144434" cy="387.9446107784431" r="2" stroke="none" stroke-width="0" fill="#000000"></circle><circle cx="1050.494304417643" cy="416.17022792022794" r="2" stroke="none" stroke-width="0" fill="#000000"></circle><circle cx="1055.8802419778883" cy="421.30694098088117" r="2" stroke="none" stroke-width="0" fill="#000000"></circle><circle cx="1057.0591384750167" cy="397.6267022242397" r="2" stroke="none" stroke-width="0" fill="#000000"></circle><circle cx="1062.612840174726" cy="344.6067941415785" r="2" stroke="none" stroke-width="0" fill="#000000"></circle><circle cx="1063.9591427079772" cy="349.5370981038747" r="2" stroke="none" stroke-width="0" fill="#000000"></circle><circle cx="1065.1380360298435" cy="328.57065217391306" r="2" stroke="none" stroke-width="0" fill="#000000"></circle><circle cx="1065.3057644427379" cy="327.61376174908054" r="2" stroke="none" stroke-width="0" fill="#000000"></circle><circle cx="1070.6916227188296" cy="355.2621725160652" r="2" stroke="none" stroke-width="0" fill="#000000"></circle><circle cx="1074.730987439456" cy="391.4916666666667" r="2" stroke="none" stroke-width="0" fill="#000000"></circle><circle cx="1123.2038781872425" cy="350.065313111546" r="2" stroke="none" stroke-width="0" fill="#000000"></circle><circle cx="1129.936411047704" cy="346.3008474576271" r="2" stroke="none" stroke-width="0" fill="#000000"></circle><circle cx="1135.3222861351533" cy="405.02025139664806" r="2" stroke="none" stroke-width="0" fill="#000000"></circle><circle cx="1179.7553600867961" cy="317.3270972354624" r="2" stroke="none" stroke-width="0" fill="#000000"></circle><circle cx="1239.1680958632148" cy="410.0101819757366" r="2" stroke="none" stroke-width="0" fill="#000000"></circle><circle cx="1251.1187674308553" cy="329.62403763900767" r="2" stroke="none" stroke-width="0" fill="#000000"></circle><circle cx="1256.504677115026" cy="346.04804515418505" r="2" stroke="none" stroke-width="0" fill="#000000"></circle><circle cx="1309.0176627378987" cy="341.07946388515035" r="2" stroke="none" stroke-width="0" fill="#000000"></circle><circle cx="1369.6081570013775" cy="329.18661900926304" r="2" stroke="none" stroke-width="0" fill="#000000"></circle><circle cx="1373.647846884435" cy="482.77702702702703" r="2" stroke="none" stroke-width="0" fill="#000000"></circle><circle cx="1430.1993975683488" cy="577.9056919642858" r="2" stroke="none" stroke-width="0" fill="#000000"></circle><circle cx="1435.5852853178865" cy="553.9063370473538" r="2" stroke="none" stroke-width="0" fill="#000000"></circle><circle cx="1500.2157620560663" cy="437.4201267482518" r="2" stroke="none" stroke-width="0" fill="#000000"></circle><circle cx="1558.1141345746983" cy="421.60968708388816" r="2" stroke="none" stroke-width="0" fill="#000000"></circle><circle cx="1563.5" cy="409.04994929006085" r="2" stroke="none" stroke-width="0" fill="#000000"></circle></g><g><g><text text-anchor="middle" x="476.8214861450159" y="798.3" font-family="Arial" font-size="18" stroke="none" stroke-width="0" fill="#444444">2000</text></g><g><text text-anchor="middle" x="784.3208881926364" y="798.3" font-family="Arial" font-size="18" stroke="none" stroke-width="0" fill="#444444">2005</text></g><g><text text-anchor="middle" x="1091.6519818647519" y="798.3" font-family="Arial" font-size="18" stroke="none" stroke-width="0" fill="#444444">2010</text></g><g><text text-anchor="middle" x="1398.9830755368673" y="798.3" font-family="Arial" font-size="18" stroke="none" stroke-width="0" fill="#444444">2015</text></g><g><text text-anchor="end" x="298" y="777.8" font-family="Arial" font-size="18" stroke="none" stroke-width="0" fill="#444444">-800</text></g><g><text text-anchor="end" x="298" y="630.55" font-family="Arial" font-size="18" stroke="none" stroke-width="0" fill="#444444">-400</text></g><g><text text-anchor="end" x="298" y="483.3" font-family="Arial" font-size="18" stroke="none" stroke-width="0" fill="#444444">0</text></g><g><text text-anchor="end" x="298" y="336.05" font-family="Arial" font-size="18" stroke="none" stroke-width="0" fill="#444444">400</text></g><g><text text-anchor="end" x="298" y="188.8" font-family="Arial" font-size="18" stroke="none" stroke-width="0" fill="#444444">800</text></g></g></g><g><g><text text-anchor="middle" x="137.3" y="477" font-family="Arial" font-size="18" font-style="italic" transform="rotate(-90 137.3 477)" stroke="none" stroke-width="0" fill="#222222">NBR</text><path d="M121.99999999999999,772L122.00000000000001,182L140.00000000000003,182L139.99999999999997,772Z" stroke="none" stroke-width="0" fill-opacity="0" fill="#ffffff"></path></g></g><g></g></svg>